/* XPM */
static char *_69937cbb2674330979dee44c6d5397cLcthqVj6bfjMzxNV[] = {
/* columns rows colors chars-per-pixel */
"60 60 242 2 ",
"   c #3E5B7F",
".  c #49506F",
"X  c #564F76",
"o  c #4E5576",
"O  c #4D547A",
"+  c #4E5C7A",
"@  c #475878",
"#  c #535576",
"$  c #5A5575",
"%  c #55557B",
"&  c #59557A",
"*  c #535A7A",
"=  c #59597B",
"-  c #555A77",
";  c #454F77",
":  c #4C5E82",
">  c #485986",
",  c #535A82",
"<  c #585B81",
"1  c #545681",
"2  c #4A6286",
"3  c #4C668D",
"4  c #496C8C",
"5  c #476586",
"6  c #52658C",
"7  c #556888",
"8  c #4E6793",
"9  c #4C6C93",
"0  c #476F96",
"q  c #546B98",
"w  c #576A94",
"e  c #5F779B",
"r  c #577696",
"t  c #46749A",
"y  c #61638C",
"u  c #607499",
"i  c #5179A4",
"p  c #5C83A6",
"a  c #5190AF",
"s  c #598AB3",
"d  c #5E94BA",
"f  c #6587AA",
"g  c #618EB6",
"h  c #688EB9",
"j  c #6290B6",
"k  c #6294BE",
"l  c #6899BD",
"z  c #58A4BF",
"x  c #62A1BC",
"c  c #589FC9",
"v  c #649EC5",
"b  c #6B9FC6",
"n  c #6395C3",
"m  c #7298C0",
"M  c #56A4C5",
"N  c #5AA5C5",
"B  c #5CABC6",
"V  c #56A4CB",
"C  c #5BA5CC",
"Z  c #5DAACC",
"A  c #57ACCE",
"S  c #5CA6D2",
"D  c #5EABD2",
"F  c #5EA7DA",
"G  c #5FABD9",
"H  c #57A2D0",
"J  c #5FB0D5",
"K  c #65A5C6",
"L  c #64A5CB",
"P  c #6CA3CB",
"I  c #62ACCD",
"U  c #6AAACC",
"Y  c #61AFC7",
"T  c #74A6CE",
"R  c #73AACC",
"E  c #78A7CA",
"W  c #64B3CC",
"Q  c #68B4CC",
"!  c #67B5C7",
"~  c #70BCCE",
"^  c #63A5D3",
"/  c #6BA6D3",
"(  c #62ACD4",
")  c #6AABD4",
"_  c #69A7DA",
"`  c #63ADD9",
"'  c #6BACDB",
"]  c #61A7DB",
"[  c #71A6D5",
"{  c #75ABD2",
"}  c #75AED8",
"|  c #65B1D3",
" . c #6BB4D5",
".. c #6CBBD5",
"X. c #65B2DA",
"o. c #6AB5DB",
"O. c #6CBADA",
"+. c #71B2D4",
"@. c #71BDDB",
"#. c #73B2DB",
"$. c #61AFE0",
"%. c #6EBAE1",
"&. c #6AB3E1",
"*. c #73BFE2",
"=. c #6FC0D0",
"-. c #73C3D6",
";. c #75C3DC",
":. c #79C4DD",
">. c #7CCBDE",
",. c #76C3E3",
"<. c #79C6E5",
"1. c #7CCBE4",
"2. c #7DCCE9",
"3. c #79C4EB",
"4. c #7ED0E0",
"5. c #7FCCF1",
"6. c #80CDDD",
"7. c #82D4DD",
"8. c #ACDFD9",
"9. c #B2D6DF",
"0. c #80CEE5",
"q. c #82CEEB",
"w. c #89CBE9",
"e. c #83D2E5",
"r. c #84D3EC",
"t. c #87D8E9",
"y. c #8CDCED",
"u. c #8AD9EA",
"i. c #90DFEF",
"p. c #91D8E0",
"a. c #86D3F2",
"s. c #89D5F4",
"d. c #8CDBF3",
"f. c #8ADBF4",
"g. c #92DFF5",
"h. c #B9DBE5",
"j. c #B2DCE6",
"k. c #A5D1E9",
"l. c #8EE0EF",
"z. c #92E2EE",
"x. c #9CE6EE",
"c. c #95EEED",
"v. c #9AECED",
"b. c #96E1E6",
"n. c #99F1EE",
"m. c #8DE2F3",
"M. c #93E3F5",
"N. c #9BE6F4",
"B. c #95EBF4",
"V. c #9BECF5",
"C. c #95E4F9",
"Z. c #9AE6FB",
"A. c #96ECFB",
"S. c #9DEEFD",
"D. c #97F2F6",
"F. c #9BF1F5",
"G. c #96F2FB",
"H. c #9DF1FD",
"J. c #9EF9FD",
"K. c #ABEAEC",
"L. c #A6E8EC",
"P. c #B3EAEB",
"I. c #B5E6E7",
"U. c #BBF2EE",
"Y. c #AAE6F4",
"T. c #A5ECF5",
"R. c #ABECF3",
"E. c #A2EDFC",
"W. c #AAEDFC",
"Q. c #A8E5FB",
"!. c #B5EDF3",
"~. c #BAEEF3",
"^. c #B5EFF9",
"/. c #A5F3F5",
"(. c #A2F3FE",
"). c #A9F4FD",
"_. c #A6F9FF",
"`. c #AAFAFF",
"'. c #ADF1F2",
"]. c #B5F3F4",
"[. c #BCF4F4",
"{. c #B4F4FB",
"}. c #BBF5FA",
"|. c #B8F9FC",
" X c #CAEDEE",
".X c #C4E7EF",
"XX c #CAF3EE",
"oX c #CDEDF3",
"OX c #C4ECF6",
"+X c #D7ECF2",
"@X c #C2F5F4",
"#X c #CBF4F4",
"$X c #C4F4FB",
"%X c #CAF5FC",
"&X c #C2F9FE",
"*X c #CCFAFD",
"=X c #CBFBF6",
"-X c #D0F4F2",
";X c #D3F6FC",
":X c #D9F7F9",
">X c #D4FBFC",
",X c #DBFCFD",
"<X c #D9F8F5",
"1X c #EEEDED",
"2X c #E1F5F7",
"3X c #EDF4FF",
"4X c #E4FDFE",
"5X c #ECFDFE",
"6X c #E4F8F8",
"7X c #F6FEF4",
"8X c #FBFCF6",
"9X c #F7FFFF",
"0X c #F5FEFE",
"qX c #F4FEFD",
"wX c #F9FAFA",
"eX c #FAFEFA",
"rX c #FDFFFB",
"tX c #FEFDFA",
"yX c #FEFBFE",
"uX c #FBFDFD",
"iX c #FAFDFD",
"pX c #F8FFFF",
"aX c #FBFFFF",
"sX c #FAFEFF",
"dX c #F9FEFD",
"fX c gray99",
"gX c #FCFCFD",
"hX c #FCFDFD",
"jX c #FFFFFD",
"kX c #FDFDFE",
"lX c #FEFDFF",
"zX c #FDFEFE",
"xX c #FDFEFF",
"cX c #FCFFFF",
"vX c #FDFFFF",
"bX c #FCFEFF",
"nX c #FEFEFE",
"mX c white",
"MX c #FFFFFF",
"NX c #FDFEFD",
"BX c #FDFEFE",
"VX c #F8F6FA",
/* pixels */
"1XhXiXhXhXhXhXhXhXhXhXhXhXhXhXhXhXhXhXhXhXhXhXhXhXhXhXhXhXhXhXhXhXhXhXhXhXhXhXhXhXhXhXhXhXhXiXiXiXhXhXiXhXhXiXhXhXhXhXiX",
"iXwXiXhXhXhXhXhXhXhXhXhXhXhXfXfXhXhXhXhXhXhXhXhXhXhXhXhXhXhXhXhXhXhXhXhXhXhXhXhXhXhXhXhXhXhXiXhXiXiXhXhXiXiXiXiXhXhXiXhX",
"VXfXiXhXhXhXhXhXhXhXrXrXhXhXyXiXhXhXhXhXhXhXhXhXhXhXhXhXhXhXhXhXhXhXhXhXhXhXhXhXhXhXhXhXhXhXhXhXhXhXhXhXhXhXhXhXhXhXhXhX",
"fXfXhXiXhXhXhXhXhXhXrX8XrXrXfXiXiXhXhXhXhXiXiXiXiXhXiXiXiXiXhXhXhXhXhXhXhXhXhXhXhXhXhXhXhXhXhXhXhXhXhXhXhXhXhXhXhXhXhXhX",
"hXhXhXhXhXhXhXhXiXiXqX4X4X4X5XiXhXhXiXiXiXhXrXhXhXrXrXeXiX0XhXhXhXhXhXhXhXhXhXhXhXhX5X2XqXrX0XiXhXhXhXhXhXhXhXhXhXhXhXhX",
"hXhXhXhXhXhXhXhX0XiX>XK.P.P.#X5XhXhXiX0XhXhXhXhXhX8XrXhXhXiXhXhXhXhXhXhXhXhXhXhXhXiX-XI.:XiX0XeXhXhXhXhXhXhXhXhXhXhXhXhX",
"hXhXhXhXhXiXhXhX0X5X>XK.P.P.@X4XqXhX0X0XhX8XhXqX5X6X5XhXhXhXhXhXhXhXhXhXhXhXhXhXhX0XXXI.>X4X5XiXhXhXhXhXhXhXhXhXhXhXhXhX",
"hXhXhXhXhXhXhXhX<XI.=X4X5X4X,X@X$X5XeXqXeXrX0X-X~.{.[.:XqXhXhXhXhXhXhXhXhXhXhXhXhXiX6X2X*X'.<XiXhXhXhXhXhXhXhXhXhXhXhXyX",
"hXhX0XeXrXrXiXqXoX8. XqXhXiX,XY.R.,X5X0X0X5X4X[.x.B.L.[.,XfXfXfXeXeXiXiXhXhXhXhXhXiXfXiX%Xb.[.5XiXhXhXhXhXqX0XiXiXhXhXhX",
"5X8XwXeX8XqX2XoX=X,X6X5X0XiX,X).(.{.@XOX$X@X@X/.B.G.v.{.$X2XqXqX7X8XqX0XhXhXhXhXhXhXwX0X*XN.R.U.:XhXVXyX3X.X X5XiXhXyXrX",
">XqX0XqX5X4X@XP.#XqXhXiX5XqX,X/.B.S.V.N.C.S.V.S.A.Q.Q.Q.Q.$X4X5X8X8XeX0XhXhXhXhXhXhX7X0X*XS.B.z.%X5XiXqX4XY.P.5XiXiXhXhX",
"`.}.@X[.[.}.`.'.#XiXwXhX4XXX[.F.G.H.H.(.G.B.).&X>X>X:X&XQ.{.[.:XqX8XrX0XhXhXhXhXhXhX8XiX&XZ.(.S.).[.].}.}.E.Y.].#X5XVXyX",
"/.n.c.n.V.S.S.V.$X5X0X0X;XR.n.F.E.E.S.E.(.V.R.>X0X0XqX>XQ.E.v.@X4XqXeXiXhXhXhXhXhXhXiXqX=XZ.E.T.N.x.n.V.(.S.B.B.K.,X3X3X",
",X=X/.H.H.E.H.S.{.*XXX*X{.V.H.(.E.E.Z.V.S.S.T.>XiX0X0X;XW.J.(.R.U.<X5X8XhXhXhXhXhXiX:X#X).F.}.%X#X#X|.(.Z.D.S.S.W.&X&X*X",
"hX0X~.(.S.A.H.H.S.N.W.).E.S.(.(.E.S.E.V.A.H.W.,XiXiX0X*XS.H.A.H.n.U.4XhXeXhXfXrXhX0X>XL.H.n.@X5XiX0X,XL.B.S.A.F.V.H.V.E.",
"hXhX:X|.W.A.G.G.(.(.Z.e.e.0.u.Z.S./.F.F.G.f.w.k.h.h.j.Y.S.G.A.G.G./.&X>XoXoXj.h.h.j.Y.Z.G.n.@X0XyXyX5X>X&XS.G.F.G.G.S.H.",
"yXhXiX4X|.V.H.B.B.(.e.N C N O.C.(.(.(.H.H.%.C I K x x >.S.A.A.H.G.B.E.W.W.N.! z K K e.H.G.B.@XqXyXyXiXhX4XT.F.D.D.G.H.(.",
"wXrX8X5X[.V.S.V.(._.f.,.o.D O.a.y.y.y.y.a.o.S ` S ` c 0._.E.S.H.S.H.H.Z.S.H.W B I D 3.f.A.H.].*X4XhXhXhX5XT.F.D.F.{.&X=X",
"4XhXrX5X}.V.T.E.(.H.S.(.f.D C ( I Z N Z ( C S D S X.C r._.S.H.G.S.(.S.V.(.(.W Z G H S C r._.).T.*XhXhXhX5XY.S.V.].,X5X5X",
"%X4X6X>X|.S.E.E.(.Z.(.`.t.Z (  .( ( ` ` ( ..@.@.@. .I <.l.M.(.S.S.(.F.B.z.M.Q I | @.+.U 5.M.g.y.!.oX+X+XOXE.S.E.!.4XeX8X",
"Z.T.Z.E.H.S.S.H.H.S.S.`.u.I ( ( ( ( ( ( ( M.(.Z.).>.Z F M >.H.H.S.H.H.S.B Z Z W z.`.(.).q.c S ( C I K N U (.(.).K.4XiX8X",
"H.H.H.H.H.V.V.H.H._.S.C.r.X.( ( ( I ^ ( I M.(.N.(.1.C X.| ..C.M.C.M.C.C.Z ( I B z.(.H.E.s.o.X.` ^ ( ( ^  .Z.g.W.T.>X,X,X",
"G.S.S.H.H.H.(.(.H.H.r.X.D ( ( ^ ^ I ( I I M.(.S.(.0.V ` ( Z | Z Z I I I D ( S Z M.).(.V.S.V.0.I ( ( ( I ^  .+.S.H.'.R.|.",
"S.S.S.(.S.C.S.H.S.S.e.| o.( I ( ^ ( ( I I d.E.S.S.,.S X.G ( Z D ` ( ( ( ( D ` G s.M.(.S.(.`.w.B ( L ( ( ( ( ) Z.G.G.C.H.",
"H.S.E.S.<.W | O.| | W N | A ( ( ^ ^ ^ _ L O. .X.&.` D X.G ] ^ ] ] ^ ] _ ( Z ` G o. .d.).).E.7.N C ( ( ( ` ` X.S.G.J.A.S.",
"S.S.(.S.,.A A D ( A D D W I I N ( C ` &./ [ U W J S S ` ' ` _  ./ / [ [ I ( ( ` ` I r.(.(.E.e.I C ( ( ` S A O.m.G.G.S.S.",
"H.S.S.(.C.C.,.Z D X.Z W ;.Z.Z.g.g.X.` t q 8 4 a ( I X.^ ] _ ( d 8 8 8 0 K ( ` ` _ D ( o.) O.I I ` X.( G o.m.A.G.H.G.H.S.",
"S.S.A.H.H.(.1.B D X.Z B :.(.S.S.E.Q U : O o 2 g { R R / / ) ' k 1 1 # : L ( G ( ( ( ` ^ V C ( X.( ( C N Z G.G.G.H.G.H.H.",
"A.S.S.A.S.S.M.f.,.Z ..M.M.).E.E.S.| U 7 - - * 6 w e 9 j } I I g > 1 & : L D ` ` ` ` ` ` X.Z ( X.` C O.d.M.H.G.H.G.H.H.S.",
"S.S.S.S.S.H.F._.2.z ;.`.(.E.E.Z.Z.#.U 5 @ . 7 * O & ; f E U o.d > @ O > U X.( ( ( ` ( _ ) ( ( ^ ( M @.Z._.G.H.G.A.G.H.S.",
"S.S.S.S.V.H.B.(.1.B ;.E.S.(.Z.,.<.( _ d g 7 + < % & - 7 r p U K g g g j ( D ` ` ( D ( | I I I N ,.s.d.H.S.H.G.H.H.H.S.H.",
"S.S.S.S.S.(.S.(.,.z :.(.`.(.g. .S ] ] X.R 7 - = % * $ .   r R ) ' L +. .( ( D ( ` ( ( ( ( ( ( Z ,.(.H.S.G.H.H.S.S.H.S.H.",
"A.S.S.S.S.S.S.(.i.1.1.1.0.0.:.( Z ] ] o.+.w % % - + - & o 7 p g U C I C | D D G ( ` D ` ( ` ( Z -.E.H.B.G.H.E.H.E.H.E.H.",
"S.S.S.S.S.S.V.(.(.(.r.B N B B I ( ` ] ( U 0 @ o * + = & $ # ; 9 E {  .C D ( ( ` ` D G ( ( J ( B ;.(.H.A.H.H.S.E.S.E.S.H.",
"A.S.A.H.S.S.S.F.F.(.d.I N ( ^ ( ` ^ ( S | s p 7 * + - % % & X y f s L Z Z D D G ` G ` G ` ( D Z ;.S.G.D.H.S.E.S.S.E.E.H.",
"H.S.S.H.G.S.S.S.S.(.u.I ( ( (  . .( ( ` o.( [ e + + + * - % & X , 8 K o.X.D ( ( D ` G S D D Z B -.(.H.A.H.H.H.E.E.S.H.H.",
"S.S.S.S.G.S.H.V.F.(.r.B | ( L k j j d L ( S } u . + + + + - , % 1 6 h k I ( G ` ( ` O.,.,.;.O.Z ;.(.H.V.H.S.S.E.S.E.E.H.",
"A.S.H.A.S.S.V.H.(.`.r.Z C ` n > = % : v X.' } u o = = - = , < < < 1 % : K ( D ` ` C a.`.S._.1.M 1.(.(.(.(.E.S.S.E.H.(.H.",
"H.S.A.S.H.S.G.(.S.y.2.X.D X.v , - = , b o.v l r # # # - - # * : & & $ * K D ` D ] Z r.(.S.).0.N *.g.z.(.S.S.E.S.S.H.E.H.",
"S.S.H.H.A.S.(.(.r.B Z D C ( l @ o % , v L t > % # # - - % + = < & & $ - U ( ( ` D ( d.).H.`.0.Z D W ..S.(.S.S.S.E.S.H.H.",
"S.S.G.G.G.S.A.C.2.A D X.J ( k 4 3 6 8 L { 9 O & - + 6 8 6 + # & $ = 7 4 U ( ( ( ( X.s.Z.C.S.q.| I X.%.C.C.H.S.S.E.S.H.H.",
"S.H.V.F.G.S.1.I D S D D J J ) K U U / ` +.6 $ X - e T / +.f * % & y l U ( ( ( ( ( G G ( | I ( I N ( ( o. .S.H.S.S.S.(.H.",
"S.S.S./.E.S.1.V S D A W J ( | ( X.X.X.( v r : + > s #.` o.s 5 5   0 P / U ( ( ( ( ] G S D D ( ( S ` ( ` O.(.V./.V.S.S.H.",
"S.S.(.N.:.( X.S X.A ;.C.Z.S.d.( _ ( ( ^ U P b E P ^ ' S ` / L K v / ' ) I ( ) ( ( ( ( D ( D D ` F ( Z ( D Y ! v./.(.(.H.",
"H.S.(.E.<.M Z ( B B -.(.H.(.M.I ( I I ( ( ( ( ( ^ ( G C S X.X.J X.` ^ _ ( ( ( ( ( ( ` D D ( ( H H ( I | ( C I S.(.E.V.H.",
"S.S.;. . .( ( C 1.S.B.F.H.V.y.Y Z I I U / ( ( D D D G X.S D G S G ` L ( L ^  .( ( D ^ G ` D ( D *.C.M.N.g.` V  ...M._.H.",
"S.E. .V C ( ( ( <.).H.(.H.E.Z.X.D ( I I U I Z J G G / / _ ` ` ( ( ^ I N N C C S _ X.( ^ ( G ( Z :.(.`.(.S.z ( B B i.H.(.",
"S.(.o.] ( ( ( D 2.(.S.(.d.@.O.Z ` ( ( B Y W I J D / _ ^ / _ ` ( I  .M.g.g.r.@.U ( ( ` ` ( ( I N -.(.F.S.Z.z.y.I B C.S.H.",
"S.H.X.V S S ( Z 0.).(.(.M.Z D D ( D G A D ( A o.A Z V S ` D D | X. .(.(.H.H. .D ^ I ^ ^ ( ( ( Q -.E.E.E.S.`.S.| B N.(.H.",
"A.S.d.a.a.a.@.Z O.1.1.:.,.Z ( ( D ( D X.` ( Z 2.s.r.a.a.d.<.J D A X.(.V.V.S.| I ) C I S I ( ( Z W 1.e.S.S.(.Z.W B C.(.H.",
"S.H.(.(.).S.1.B N V N N Z Z ( D ` D X.( A N B r.(.(.H.(.(.t.I D V ..(.(.S.S.X.( ( C D D Z S ( Z I N ,.(.`.(.S.X.B C.E.H.",
"H.S.H././.S.M.1.o.V ` ` D X.D ( D ( D | ( 2.2.M.(.H.V.B.(.M.2.5.G X.e.0.1.2.( ( ( W ;.4.0.0.0.u.<.V o.q.e.1.<.I D C.E.(.",
"S.S.S.S.S.(.V.(.r.A G ( Z X.D D ( D D N I C.(.(.H.S.(.H.H.(.(.M.A A J N V D H ` ^ I e._.(.(.(.(.d.V F A Z B ( N ( C.(.H.",
"S.S.S.E.S.H.V.`.4.M S X.Z X.X.` X.( ( ( Z M.(.S.Z.S.(.(.H.(.H.M.:.<.| A S G D ( :.-.l./.(.V.G.S.d.;.,.S ( I X.D I M.E.H.",
"S.S.S.S.S.H.H.(.1.N ` H V ] F F G D ( G ( M.(.S.Z.(.S.S.S.S.S.H._.M.W M D ` ( | N.(.H.S.S.S.S.G.H._.B.D G D W Z B Z.(.H.",
"A.S.S.H.H.H.(.(.1.V X.` o.1.*.*.O.G ` ` ( M.(.S.Z.S.E.S.S.S.S.S.H.M.>.-.J G D Z M.(.E.S.S.G.S.S.S.H.M.D G Z A ;.;.Z.(.H.",
"H.S.H.H.S.S.H.`.r.N D A @.E.(.(.C.( C ( X.C.(.(.E.E.S.E.S.H.S.S.H.H.S.A.B V S A M.(.S.Z.V.S.S.S.S.(.M.D G A W S.S.(.E.H.",
"S.S.H.H.S.S.C.m.<.I I  .>.H.S.E.C.,. .| X.a.d.S.(.S.E.S.E.H.S.(.H.H.H.S...O.O.| g.S.S.E.S.S.S.S.S.H.M.D ` -.-.M.S.(.H.H.",
"S.S.G.H.H.S.1.B B M <.(.N.(.E.(.H.(.H.Q B Z Y u.(.S.S.E.E.S.S.S.H.S.S.F.G.E.H.N.(.V.S.Z.S.S.S.S.S.H.M.A o.H.H.S.V./.V.(.",
").V.V.B.V.z.6.~ ! ~ 6.B.S.S.S.H.S.(.H.! Y ! =.7.z.(.S.H.S.(.S.(.S.H.(.(.(.(.(.(.H.S.(.(.(.S.(.H.V.M.t.-...(.(.H.S.H.H.p."
};
