/* XPM */
static char *b62fbf1c76a84e50f3fce9d92b67d5aaQ2p6n3JrrqVHfCu9[] = {
/* columns rows colors chars-per-pixel */
"60 60 210 2 ",
"   c #1B1A1A",
".  c #341D1D",
"X  c #261E1D",
"o  c #3C211F",
"O  c #1B1C21",
"+  c #2B1F23",
"@  c #381F21",
"#  c #152123",
"$  c #1B2021",
"%  c #1C2529",
"&  c #222629",
"*  c #242A2B",
"=  c #212524",
"-  c #332326",
";  c #3A292C",
":  c #2A2B34",
">  c #262933",
",  c #382D33",
"<  c #2A3237",
"1  c #2A343A",
"2  c #2A383E",
"3  c #353237",
"4  c #411C1E",
"5  c #4D1F23",
"6  c #7D1F21",
"7  c #49262A",
"8  c #542528",
"9  c #422C34",
"0  c #4F2B36",
"q  c #572D3C",
"w  c #4C3B3F",
"e  c #792630",
"r  c #2D3A41",
"t  c #3B3B42",
"y  c #3D3D4C",
"u  c #333844",
"i  c #3B3F53",
"p  c #4D3843",
"a  c #5B3441",
"s  c #6C2D44",
"d  c #653343",
"f  c #6C3446",
"g  c #603B4B",
"h  c #75334A",
"j  c #7D3B53",
"k  c #712C47",
"l  c #36414C",
"z  c #3D4149",
"x  c #3B4352",
"c  c #3E4459",
"v  c #43414B",
"b  c #4A454F",
"n  c #434554",
"m  c #484552",
"M  c #444955",
"N  c #44455B",
"B  c #444A5B",
"V  c #4A4A5A",
"C  c #4B4958",
"Z  c #584B54",
"A  c #654F55",
"S  c #744252",
"D  c #6B535C",
"F  c #63545B",
"G  c #454C63",
"H  c #494D64",
"J  c #4B4E6B",
"K  c #434561",
"L  c #475167",
"P  c #4C526D",
"I  c #4A5166",
"U  c #50546F",
"Y  c #4E5471",
"T  c #515675",
"R  c #535778",
"E  c #54587B",
"W  c #6A5761",
"Q  c #7D5C68",
"!  c #7C636B",
"~  c #7C6570",
"^  c #991C1D",
"/  c #84181C",
"(  c #AF140F",
")  c #A81B1B",
"_  c #A41C25",
"`  c #832224",
"'  c #8D2223",
"]  c #8C222A",
"[  c #992524",
"{  c #A42424",
"}  c #AC2323",
"|  c #B32526",
" . c #BF2526",
".. c #B92C3F",
"X. c #C62526",
"o. c #D52625",
"O. c #893B55",
"+. c #943C58",
"@. c #812546",
"#. c #B42E5B",
"$. c #A6325F",
"%. c #B32D56",
"&. c #B22E61",
"*. c #B63162",
"=. c #BA3363",
"-. c #BB386A",
";. c #C63B54",
":. c #C43B6C",
">. c #C93F6F",
",. c #C23766",
"<. c #C83D72",
"1. c #D13A74",
"2. c #844252",
"3. c #A3415E",
"4. c #974B62",
"5. c #815F68",
"6. c #A54665",
"7. c #AD4366",
"8. c #B8466D",
"9. c #BE4B72",
"0. c #B35977",
"q. c #8C6978",
"w. c #9A717F",
"e. c #CA406D",
"r. c #C44471",
"t. c #CA4173",
"y. c #CC4678",
"u. c #D34575",
"i. c #D54B7B",
"p. c #DA4B7C",
"a. c #D74977",
"s. c #D4527E",
"d. c #DA517E",
"f. c #CF5371",
"g. c #DD4C81",
"h. c #DB5682",
"j. c #C65B83",
"k. c #E34F80",
"l. c #E35383",
"z. c #E95586",
"x. c #E55B86",
"c. c #EC5987",
"v. c #EB5789",
"b. c #E25B89",
"n. c #ED5B8B",
"m. c #E7568A",
"M. c #F25C8C",
"N. c #FA5C8E",
"B. c #FB5C93",
"V. c #F75D94",
"C. c #D66B8F",
"Z. c #D57699",
"A. c #D56790",
"S. c #EC618D",
"D. c #F2618E",
"F. c #FD638F",
"G. c #F56492",
"H. c #FC6594",
"J. c #FC6A96",
"K. c #FF6299",
"L. c #F56B98",
"P. c #FE6E9A",
"I. c #E7729A",
"U. c #FF719C",
"Y. c #E86A91",
"T. c #DB7BA0",
"R. c #FF75A1",
"E. c #FF7BA5",
"W. c #FF7DA9",
"Q. c #F476A1",
"!. c #E87AA0",
"~. c #B78898",
"^. c #B9919D",
"/. c #AA838D",
"(. c #BE91A3",
"). c #BB8CA1",
"_. c #CC869F",
"`. c #D688A6",
"'. c #C599AE",
"]. c #D790A8",
"[. c #E38CAB",
"{. c #EE8BAD",
"}. c #FF82A7",
"|. c #FE84AB",
" X c #FE8AAE",
".X c #F490AF",
"XX c #FF8CB2",
"oX c #FE87B0",
"OX c #E895B4",
"+X c #FF93B6",
"@X c #FF95BA",
"#X c #FD9BBC",
"$X c #F69AB9",
"%X c #E491AA",
"&X c #D9A7BB",
"*X c #EBA6BF",
"=X c #FF9BC2",
"-X c #DDAAC0",
";X c #FFA5C4",
":X c #FEAAC6",
">X c #FFA7CB",
",X c #FDABCD",
"<X c #F7A9C4",
"1X c #E9B4CB",
"2X c #FFB2CC",
"3X c #FDB5D2",
"4X c #FFBCDD",
"5X c #FCB7D4",
"6X c #EAB6CD",
"7X c #FFC7E0",
/* pixels */
"E E E E E E E E E E E E E E E E E E E E E E E E E E E E E E E E E E E E E E E E E E E E E E E E E E E E E E E E E E E E ",
"E E E E E E E E E E E E E E E E E E E E E E E E E E E E E E E E E E E E E E E E E E E E E E E E E E E E E E E E E E E E ",
"E E E E E E E E E E E E E E E E E E E E E E E E E E E E E E E E E E E E E E E E E E E E E E E E E E E E E E E E E E E E ",
"E E E E E E E E E E E E E E E E E E E E E E E E E E E E E E E E E E E E E E E E E E E E E E E E E E E E E E E E E E E E ",
"E E E E E E E E E E E E E E E E E E E E E E E E E E E E E E E E E E E E E E E E E E E E E E E E E E E E E E E E E E E E ",
"E E E E E E E E E E E E E E E E E E E E E E E E E E E E E E E E E E E E E E E E E E E E E E E E E E E E E E E E E E E E ",
"E E E E E E E E E E E E E E E E E E E E E E E E E E R E E E E E H % O O   H E E E E E E E E E E E E E E E E E E E E E E ",
"E E E E E E E E E E E E E E E E E E E E E E E E R H G H G Y E H V D D D D C J R E E E E E E E E E E E E E E E E E E E E ",
"E E E E E E E E E E E E E E E E E E E E E E E E T =     X x E % D 1X1X1X6XF : P E E E E E E E E E E E E E E E E E E E E ",
"E E E E E E E E E E E E E E E E E E E E E Y 1 > t /.^.~.^.W < w.].XXoXXXXXC.4.< I E E E E E E E E E E E E E E E E E E E ",
"E E E E E E E E E E E E E E E E E E E E P M A A 5.$X>X;X;X~.A ].+XP.P.P.P.E.Y.O.m P R E E E E E E E E E E E E E E E E E ",
"E E E E E E E E E E E E E E E E E E E R u Z 1X1X*XE.U.R.U..X1X XU.P.P.U.P.U.R.Q.S 1 P E E E E E E E E E E E E E E E E E ",
"E E E E E E E E E E E E E E E E E E L z ~ `.@X@X XP.J.P.J.}.#XE.U.E.U.U.U.G.n.i.r.O.3 L E E E E E E E E E E E E E E E E ",
"E E E E E E E E E E E E E E E E E E c 3 (.4XJ.J.P.P.U.U.U.J.n.n.S.n.L.U.U.H.l.-.z.b.h z P R E E E E E E E E E E E E E E ",
"E E E E E E E E E E E E E E E R E E L : ^.5XP.J.U.U.U.P.U.x.#.=.*.=.G.R.U.U.L.l.G.J.h.S 2 I E E E E E E E E E E E E E E ",
"E E E E E E E E E E E E E E E P l l 3 h Z.=XU.U.U.P.U.U.U.I.Z.Z.Z.Z.s.h.J.R.U.J.U.R.K.+.& G E E E E E E E E E E E E E E ",
"E E E E E E E E E E E E E E Y i 3 , f t.n.L.L.J.U.U.U.U.P.+X2X2X2X3Xj.y.J.U.U.U.U.P.H.O.* L E E E E E E E E E E E E E E ",
"E E E E E E E E E E E E E T u W '.'.`.S.a.,.:.x.R.U.U.P.U.U.|.}.}.}.OX{.U.U.U.U.U.U.B.O.* G E E E E E E E E E E E E E E ",
"E E E E E E E E E E E E N n W _.>X,X=XP.h.r.i.S.R.U.U.U.U.P.J.J.J.J.@X@XR.P.U.U.J.H.H.+.* B E E E E E E E E E E E E E E ",
"E E E E E E E E E E E E & p -X>XJ.J.P.P.R.R.U.U.U.U.P.U.P.U.P.U.U.U.P.P.U.U.U.P.M.z.h.O.2 L E E E E E E E E E E E E E E ",
"E E E E E E E E E E E E * p &X:XJ.J.U.U.U.U.U.R.U.P.P.P.U.U.U.P.U.P.U.U.U.R.P.D.V.s.f v U R E E E E E E E E E E E E E E ",
"E E E E E E E E E E E E y v w.%XXXXX}.U.U.U.U.D.x.}.}.P.U.U.U.U.U.U.U.U.U.U.J.S.N.s.f v P T E E E E E E E E E E E E E E ",
"E E E E E E E E E E E E E T : Q 6X5X$XU.U.U.L.u.8.<X+XP.P.P.P.U.U.P.P.P.P.U.R.U.D.c.B.+.* V E E E E E E E E E E E E E E ",
"E E E E E E E E E E E E R R H n 5.0.!.#X|.S.i.C.[.XX}.P.U.J.M.P.P.R.G.G.U.U.U.U.D.c.N.+.= I E E E E E E E E E E E E E E ",
"E E E E E E E E E E E E E E E x   k I.:X Xd.#.[.7XP.J.P.U.G.c.H.P.U.l.l.J.U.U.U.G.n.M.$.9 V T E E E E E E E E E E E E E ",
"E E E E E E E E E E E E E E E x ; ^.>XP.U.n.-.Z.3XR.P.U.U.U.P.n.G.U.>.:.l.J.U.U.U.J.D.M.h.q r Y E E E E E E E E E E E E ",
"E E E E E E E E E E E E E R B F ~.{. XU.U.J.A.s.A.+X|.P.U.P.U.n.G.U.S.d.e.l.G.P.U.U.n.N.n.9.S b E E E E E E E E E E E E ",
"E E E E E E E E E E E E E U & q.4X|.H.U.U.U.U.p.8.*X+XJ.U.U.U.n.M.U.}.S.*.u.M.J.U.J.n.v.n.B.8.; E E E E E E E E E E E E ",
"E E E E E E E E E E E E E P > q.5XoXJ.P.U.P.U.P.U.U.U.U.P.P.U.c.M.U.R.S.*.u.n.P.R.U.n.z.v.N.7.9 E E E E E E E E E E E E ",
"E E E E E E E E E E E E E R I Z w.[.XXP.P.P.U.U.U.P.U.P.U.P.H.D.L.U.x.i.y.z.J.U.J.G.n.z.n.V.7., E E E E E E E E E E E E ",
"E E E E E E E E E E E E E E E c 3 ^.,XU.P.U.U.P.U.U.U.U.U.G.c.J.U.R.<.:.m.P.U.U.S.z.z.c.v.B.6.9 E E E E E E E E E E E E ",
"E E E E E E E E E E E E E E E R Y 3 ! 2X XJ.P.U.P.U.U.P.U.P.P.U.P.U.L.K.U.R.U.n.v.v.c.c.n.B.8.9 E E E E E E E E E E E E ",
"E E E E E E E E E E E E E E E T i F ~.@XW.J.U.U.U.U.U.P.P.R.P.U.U.U.K.S.h.n.G.c.v.v.v.V.z.7.a V E E E E E E E E E E E E ",
"E E E E E E E E E E E E E E E M , ^.>XP.P.P.U.J.U.U.U.U.P.P.U.P.U.P.G.g.&.a.c.n.v.v.v.B.i.q r R E E E E E E E E E E E E ",
"E E E E E E E E E E E E E E E M , '.3XH.P.n.,.b.}.U.U.U.P.R.P.G.n.V.V.g.&.y.v.m.m.n.B.7., N T E E E E E E E E E E E E E ",
"E E E E E E E E E E E E E E E I p ~ ].XXW.G.u.h.S.U.G.b.L.L.L.n.l.i.i.i.1.k.M.n.N.m.9.g x Y E E E E E E E E E E E E E E ",
"E E E E E E E E E E E E E E E E Y 1 Q 3X+XP.L.a.-.U.d.=.n.n.n.V.p.*.&.<.n.V.M.n.B.s.0 l R E E E E E E E E E E E E E E E ",
"E E E E E E E E E E E E E E E E E J N F g 4.W.k.%.r.p.p.X.%.y.:.<.p.1.$.d a d s f a i Y R E E E E E E E E E E E E E E E ",
"E E E E E E E E E E E E E E E E E E J > > p j.i.<.<.u.e.{ _ #.,.p.V.-.s : > > > : u Y R E E E E E E E E E E E E E E E E ",
"E E E E E E E E E E E E E E E E E E E Y Y p 9 4.B.m.;.) } { _ a.M.B.s t J J J J J Y R E E E E E E E E E E E E E E E E E ",
"E E E E E E E E E E E E E E E E E E E E E R c p h s ] ( | ) ) e s h M P E E E E E E E E E E E E E E E E E E E E E E E E ",
"E E E E E E E E E E E E E E E E E E E E E E E B < 1 8 ^ } [ / , < 2 R E E E E E E E E E E E E E E E E E E E E E E E E E ",
"E E E E E E E E E E E E E E E E E E E E E E E T P P v 4 ) 6 + I P Y E E E E E E E E E E E E E E E E E E E E E E E E E E ",
"E E E E E E E E E E E E E E E E E E E E E E E E E E B = | 6 # Y E E E E E E E E E E E E E E E E E E E E E E E E E E E E ",
"E E E E E E E E E E E E E E E E E E E E E E E E E R n .  .` O P E E E E E Y Y E E E E E E E E E E E E E E E E E E E E E ",
"E E E E E E E E E E E E E E E E E E E E E E E E E R M . X.` $ P E E E E E l u R E E E E E E E E E E E E E E E E E E E E ",
"E E E E E E E E E E E E E E E E E E E E E E E E R R M .  .` $ P E E E Y I 8 8 N Y E E E E E E E E E E E E E E E E E E E ",
"E E E E E E E E E E E E E E E E E E E E E E E E E R M .  .` $ P E E E G % [ | @ i E E E E E E E E E E E E E E E E E E E ",
"E E E E E E E E E E E E E E E E E E E E E E E E E R n .  .` # P E E E G # [ | 5 i E E E E E E E E E E E E E E E E E E E ",
"E E E E E E E E E E E E E E E E E E E E E E E E E R M . X.[ 8 N c K K p 0 } | @ i E E E E E E E E E E E E E E E E E E E ",
"E E E E E E E E E E E E E E E E E E E E E E E E E T M - | o.X.5 + - O 8 X.o.{ ; c R E E E E E E E E E E E E E E E E E E ",
"E E E E E E E E E E E E E E E E E E E E E E E E E E P M 8 ' o.{ ' [ ] { o.` 0 p T E E E E E E E E E E E E E E E E E E E ",
"E E E E E E E E E E E E E E E E E E E E E E E E E E E E 2 0 { | | | | } } 7 r T E E E E E E E E E E E E E E E E E E E E ",
"E E E E E E E E E E E E E E E E E E E E E E E E E E E E T V - - - - - - - G R R E E E E E E E E E E E E E E E E E E E E ",
"E E E E E E E E E E E E E E E E E E E E E E E E E E E E E E E E E E E E E E E E E E E E E E E E E E E E E E E E E E E E ",
"E E E E E E E E E E E E E E E E E E E E E E E E E E E E E E E E E E E E E E E E E E E E E E E E E E E E E E E E E E E E ",
"E E E E E E E E E E E E E E E E E E E E E E E E E E E E E E E E E E E E E E E E E E E E E E E E E E E E E E E E E E E E ",
"E E E E E E E E E E E E E E E E E E E E E E E E E E E E E E E E E E E E E E E E E E E E E E E E E E E E E E E E E E E E ",
"E E E E E E E E E E E E E E E E E E E E E E E E E E E E E E E E E E E E E E E E E E E E E E E E E E E E E E E E E E E E ",
"E E E E E E E E E E E E E E E E E E E E E E E E E E E E E E E E E E E E E E E E E E E E E E E E E E E E E E E E E E E E "
};
