/* XPM */
static char *dc64376f1e5e436c80d57d301564b43fAjmDEe4VDLxBbeTw[] = {
/* columns rows colors chars-per-pixel */
"60 60 239 2 ",
"   c #3D1C23",
".  c #471D2F",
"X  c #452226",
"o  c #492426",
"O  c #4B2529",
"+  c #4A262A",
"@  c #522625",
"#  c #502729",
"$  c #552C2A",
"%  c #5A2E2B",
"&  c #572927",
"*  c #5C302C",
"=  c #562D32",
"-  c #4C333E",
";  c #5B3336",
":  c #52343D",
">  c #5B3439",
",  c #563236",
"<  c #4A2333",
"1  c #62342D",
"2  c #69372D",
"3  c #743A2B",
"4  c #6A3A34",
"5  c #753E38",
"6  c #4E1B16",
"7  c #7D4433",
"8  c #7D443A",
"9  c #7D4735",
"0  c #774331",
"q  c #3D3E55",
"w  c #553842",
"e  c #4F3540",
"r  c #084D7A",
"t  c #305478",
"y  c #68484E",
"u  c #54587B",
"i  c #5A5E7C",
"p  c #41597A",
"a  c #68667A",
"s  c #67525E",
"d  c #B46E19",
"f  c #83462C",
"g  c #975826",
"h  c #824634",
"j  c #844936",
"k  c #8A4A35",
"l  c #834739",
"z  c #854A3A",
"x  c #8B4C3B",
"c  c #8E513E",
"v  c #93513B",
"b  c #985537",
"n  c #9D4D33",
"m  c #A6542E",
"M  c #A65633",
"N  c #AB5932",
"B  c #A55C3D",
"V  c #AA5E3D",
"C  c #A85B34",
"Z  c #B65F2F",
"A  c #BA7225",
"S  c #AC603D",
"D  c #B2633E",
"F  c #BA663E",
"G  c #BC6A3D",
"H  c #B6693C",
"J  c #B36A26",
"K  c #C97829",
"L  c #C26C3D",
"P  c #C36D36",
"I  c #C5713D",
"U  c #D47B30",
"Y  c #DC7805",
"T  c #8B4D42",
"R  c #9E5941",
"E  c #955341",
"W  c #83574F",
"Q  c #A45C42",
"!  c #AA5E43",
"~  c #A95E4A",
"^  c #9A695C",
"/  c #AD6143",
"(  c #AC6148",
")  c #B46543",
"_  c #BA6742",
"`  c #B66845",
"'  c #BB6944",
"]  c #B4654A",
"[  c #B76949",
"{  c #BC6B49",
"}  c #B9674A",
"|  c #8B6E6E",
" . c #C16B43",
".. c #C06D4A",
"X. c #C66B42",
"o. c #C57144",
"O. c #C5714A",
"+. c #D8880C",
"@. c #E99406",
"#. c #FD9D00",
"$. c #F69705",
"%. c #E58A15",
"&. c #F79917",
"*. c #F08F0C",
"=. c #FFA400",
"-. c #FFAC00",
";. c #FFA90C",
":. c #FFB200",
">. c #FFBC00",
",. c #DA822C",
"<. c #DE8431",
"1. c #DD9D35",
"2. c #E58B2B",
"3. c #E68A2A",
"4. c #E58B32",
"5. c #F09528",
"6. c #D6B832",
"7. c #FFC400",
"8. c #FFCC00",
"9. c #FFD401",
"0. c #FFDA00",
"q. c #FFD718",
"w. c #FFEB00",
"e. c #FFF00E",
"r. c #D3C137",
"t. c #F7CF35",
"y. c #FFED27",
"u. c #FEC972",
"i. c #E9B764",
"p. c #175682",
"a. c #2A5B85",
"s. c #355D83",
"d. c #34628B",
"f. c #3A6489",
"g. c #396B95",
"h. c #2C6794",
"j. c #2A6B9B",
"k. c #5B5F80",
"l. c #5C6384",
"z. c #446C93",
"x. c #466E97",
"c. c #47729B",
"v. c #5C7A9B",
"b. c #45688D",
"n. c #666B88",
"m. c #6A7695",
"M. c #737895",
"N. c #767687",
"B. c #4879A5",
"V. c #557BA3",
"C. c #8B7A87",
"Z. c #77819C",
"A. c #5C81A8",
"S. c #5C85B2",
"D. c #6485AA",
"F. c #6589AD",
"G. c #6686A8",
"H. c #768AA7",
"J. c #7591AD",
"K. c #668CB4",
"L. c #728FB2",
"P. c #7C95B5",
"I. c #7395BB",
"U. c #7698BD",
"Y. c #7997B9",
"T. c #6E92B5",
"R. c #7A9CC2",
"E. c #7EA0C0",
"W. c #B28E87",
"Q. c #B2908B",
"!. c #8589A1",
"~. c #8C93AC",
"^. c #829CBD",
"/. c #8299B7",
"(. c #949AB0",
"). c #8BA1BD",
"_. c #C89A8D",
"`. c #CBA298",
"'. c #D3A895",
"]. c #D3B1AA",
"[. c #EFBF90",
"{. c #ECC080",
"}. c #819EC1",
"|. c #89A6C7",
" X c #93AAC6",
".X c #9AADC4",
"XX c #94ADCA",
"oX c #9AAFCB",
"OX c #93A6C3",
"+X c #9CB2CC",
"@X c #97B1CB",
"#X c #95B2D1",
"$X c #9CB5D1",
"%X c #9EBAD7",
"&X c #A2B5CD",
"*X c #AAB9CD",
"=X c #A1B6D2",
"-X c #A4BAD4",
";X c #AABCD4",
":X c #A4BCDA",
">X c #AABED9",
",X c #B0B9CD",
"<X c #ADC2DB",
"1X c #AAC1D8",
"2X c #B1C1D6",
"3X c #B4C5DC",
"4X c #B6C8DE",
"5X c #BBC9DD",
"6X c #BAC5D8",
"7X c #B3C6E0",
"8X c #B5CAE2",
"9X c #BCCCE2",
"0X c #BACBE5",
"qX c #BED1E6",
"wX c #ADC6E1",
"eX c #C2CDDE",
"rX c #C1C8D2",
"tX c #C7D2DE",
"yX c #D2C6CA",
"uX c #C2CFE2",
"iX c #C4D2E4",
"pX c #CAD5E5",
"aX c #C4D4E9",
"sX c #CAD6E9",
"dX c #CDDAEB",
"fX c #CBD8E3",
"gX c #D3DBE6",
"hX c #D2DBEB",
"jX c #D9DFEB",
"kX c #D1DEF0",
"lX c #CDDEF1",
"zX c #DCE2EB",
"xX c #D7E0EC",
"cX c #D9E3F3",
"vX c #E6E8ED",
"bX c #E5EAF2",
"nX c #F4F4F9",
"mX c #F0F0F2",
"MX c #E0DFEA",
/* pixels */
"u u u u u u u u u u u u u n.uXiXuXiX5X3XXXfX;X+XeXl.m.iX9XqXeXiXiXiXiXiXH.i 6XpXiXiXpX3X-X&XM.i u u u u u u u u u u u u ",
"u u u u u u u u u u u u !.pXuX9XeXiXiXiXeXpXiX9XqXp v.pXiX2X+XpXpXpXiXpXJ.t iXfXiXpXpXiXuXuXeX,Xu u u u u u u u u u u u ",
"u u u u u u u u u u l.(.H.m.cXiX5X*X;X;X;X;X5XiXqXd.v.pX;X&X+X2X;X;X;X2XG.p.pX3X2X2X;X6XuXaXeX,Xp i u u u u u u u u u u ",
"u u u u u u u u u u M.2XP.b.3X4X9X X@X.XXX@X3X5XiXd.V.sXXX+X+X+X+XoXoX-XH.a.sX;X.XoX@X2XuXpX&X|.b.n.k.u u u u u u u u u ",
"u u u u u u u u u M.uXuXzXgXr  XsXXXXX.X X X X+XqXd.A.aX+X+X+XXX XXXOX9XY.a.uX-XoXoX&X&X+XzXv.s.;XhX(.i u u u u u u u u ",
"u u u u u u u l.~.,XpXuXpXgX*XD.V.sX4XuXxXjXjXgXzXh.A.nX+X=X=XzXvXzXzXvX^.p.bXMXxXvX+X*X;Xg./.&X*XiXeX*Xn.u u u u u u u ",
"u u u u u u i !.,X9X2XaX4X5XvXP.c.|.gXpX8X5X5X5X5XB.T.aX|.XXXXuXuXeXuXuX|.x.uXuXeX5XtX*XP.c.oX5X;X6XuXpX!.n.u u u u u u ",
"u u u u u u M.4XuX>XoXuX;XoXsX;XU.a.gX-XK.I.I.I.U.U.R.I.I.U.I.I.I.I.I.U.U.U.R.Y.Y.S.zX).f.9X6X-XsX-X;XuXpX!.u u u u u u ",
"u u u u u u M.s.8XhX0XiX2XXX=X+X+X:XB.i > w : : w w : - e : e : > y w = e w , w s #Xx.).gX-X&X=X;X-X&X.XcX/.t n.u u u u ",
"u u u u !.(.,XJ.F.^.kX;X=XoX@X1X8X#Xq - & 3 3 h 2 2 3 7 5 f h h & & 2 h h h 3 & = s B.|.,XjX2X&X&X&X;XfX/.J.J.(.u u u u ",
"u u u u rX4XhXvXG.V.0X&X&XoX-X>X>Xm.* & O b D G 7 k b  ._ F F X.* & h F F L n 2 & 6 M.Y.R.jXuX;X&X-X;XeXb.P.iXfXu u u u ",
"u u u u iX9XhXnXvX.Xp.dX>X&XpX#XL.O S k o v S _ h k b G G G G X.1 & h  .F L k k 7 o $ a }.R.>XsX+XpX&Xa.&X5X-XeXu u u u ",
"u u u u uX;X;XjXgXgX&Xz.|.aX|.a w b F k o v ! _ 7 k b G F F F X.* & k _  .L k h k ! @ , y R.|.OXcXG.v.^.sX5X&XeXu u u u ",
"u u u u uX2X;XpX2XpXjXD.R.XXi y 3 X.) k o v V _ 7 j b _ F F F  .% % h  .F L h v M X.5 % & n.I.R. XL.).dXiX1X&XeXu u u u ",
"u u u u iXuXiX9X=X-XhXjX|.r @ k F F ) k X v V _ 7 z b _ _ F F  .* $ h _ F  .h N _ L P h & @ M.R.r 6XvXmX*X.X+X5Xu u u u ",
"u u u u hXiX2X6XaXsXdXlX!.+ N D G F k 4 o v B _ 8 k v _ F F _  .% & h _ F  .h V F F L D B @ ; y x.xXnXcXsXdXhXpXu u u u ",
"u u u u P.F.G.F.P.}./.C.W 3 I D F D h 2 o v B _ 7 l v _ _ _ H  .* $ h _ '  .7 B G F G _  .& @ = x.XXOX^./.P.P.~.u u u u ",
"u u u u t s.a.s.a.h.b.4 k F F D F F l 2 o v Q _ h l b _ _ _ _  .% $ h _ F ' 7 V F F G _  .& # = s.g.z.f.d.d.f.n.u u u u ",
"u u u u ,X>X-X=X-X>XgXyX_.Z F H F _ l 2 X v V _ ) z b _ ` _ _ ' % $ l } F F S _ F ' G _  .& # , m.<XtXgX1X-X;X*Xu u u u ",
"u u u u 6X4X9XsXsXhXgXtX_.m v V F _ z 2 . v V _ _ k v _ H _ _  .1 & l _ _ _  .F D n F  . .& # > D.xXvXgX5X3X2XpXu u u u ",
"u u u u +XoX-XhXaX4XoX&XW.m h C _ _ l 2 o E B  .' k b ' _ ` H o.% $ z _ _ ) V F D 7 D  .L & # 1 D.sXgX$X@X&X=X5Xu u u u ",
"u u u u .X.X-XhXaX0XXX&XW.M 3 V _ _ z 3 # E ! _ ' k v _ ` _ _ O.1 * z } _  .f ! D 7 D  . .& @ > G.4X9X+X X;XiX&Xu u u u ",
"u u u u 5X0X0XsXsX9X#XoXW.n 4 8 l l 5 ; . T y h ~ y z ~ ~ ~ ( , < $ 5 ~ ! ~ E Q ! B D _ _ & # > G.8X4XXX>XiXiX5Xu u u u ",
"u u u u dXdXhXsXaX4X:X0X_.Y J A A A P J g K K K 3.K U U 4.,.U g g m K ,.3.U U 4.U ) D _  .& # > G.0XaX2XsXhXdXpXu u u u ",
"u u u u 4X9X5X4X%XXX#XrXi.=.-.=.-.=.=.=.=.=.=.-.=.=.-.-.-.-.-.-.=.-.-.=.-.-.-.-.=.P F _  .$ O ; G.:X8X4X4X4X5X6Xu u u u ",
"u u u u s.d.d.a.h.p.a.5 d >.w.>.-.-.-.-.:.-.0.w.=.-.:.-.-.8.w.-.:.:.-.-.8.w.-.-.-.-.G )  .$ @ = f.h.h.d.d.d.s.m.u u u u ",
"u u u u L.L.Y.OXY.R.).W.1.:.0.>.-.-.:.:.:.:.8.9.-.:.:.:.-.8.9.-.>.:.:.:.7.0.:.-.-.&.F _ _ $ @ , z.|.).I.L.L.G.~.u u u u ",
"u u u u aXuXaXbXiXpXbXvXu.#.#.#.#.#.=.=.@.$.#.=.=.#.=.#.=.#.#.=.@.$.$.#.=.$.=.=.&.H D '  .$ # ; A.sXjX9X9XiXpXtXu u u u ",
"u u u u aX7X;X2X>X:X9XvX'.Z A G G P G b 2 S H I I b S o.L o.I o.7 7 b o.V g L I I ) D _  .$ # > F.0XiX:X$X5XdXfXu u u u ",
"u u u u pXuX<X X#XXX:XvX'.n ! / Q ! ( 8 + T v ` ( 8 k ( ( R v { = $ 9 ] Q v ( ( ) F _ ` _ $ # > D.3X0X$X+X=X;X1Xu u u u ",
"u u u u pXaX8X-X:X=X:XjX'.m D D D ) ) z o v / ' [ z v ` ` E z O.1 * l ] _ [ ` H ) _ _ `  .$ O ; D.8X9X=X+X+X+X.Xu u u u ",
"u u u u iX>X>XsXaX8X$X,XQ.N S D ) ` ) z X c R ` [ k v _ ` E z ..* $ h } ' ' ) _ ) _ _ ' ' $ # ; D.8X9X$X+X+X+X@Xu u u u ",
"u u u u hXdXsXcXkXdX:XwXQ.m S D S c / z X c R ` ` k c ` ` ( / { * % 9 [ ` ` H ` H _ _ ` ' $ # ; D.wX3X+XXX-X7X6Xu u u u ",
"u u u u ^.|.|.^.R.R.F.N.| D D D S 9 _ x X c / ` { z v ' ` ` ` [ * $ 9 ` / ( ` ` ) ! ` _  .$ O ; F.aXlX9X3XaXhXpXu u u u ",
"u u u u t d.a.d.g.h.f.y z F D ) S 9 / 8 X c Q ' ' z c ' ` ) ` O.* $ 8 [ ' I ` _ ` I F ` ' $ # ; A.qXdX4X3X4X4X6Xu u u u ",
"u u u u P.I.|.-X3X3X+X]._.N D D / 9 * $ X c Q _ [ z v [ ` ` ` { * $ z ( <.;.S / I -.H ) ' $ # = d.A.c.g.x.g.f.m.u u u u ",
"u u u u -X;X1XpXkXkXaXcX'.m V D S 9 X X X c / ` [ z v [ ` ` ` { * % 8 4.5.5.D ` _ d 5.U  .% O , c.K.S.A.c.A.G.!.u u u u ",
"u u u u *X:X$X-X%X#X%XsX`.m D D / 8 X X o c Q ` { z v [ ` ` ` { % % 5 >.5./ ( S R . =.&. .% # ; S.8XqX%X:X3XiXtXu u u u ",
"u u u u uX;X:XaX=X#X:XbX'.m ) D / 9 X X o c R ` [ k c [ ) ` ` { * * 0 :.5.` ` ` / < =.5. .$ # ; D.8X0X+X9X3X-X6Xu u u u ",
"u u u u pX:X:XdXqX<X%XjX`.m D ) / 9 z 0 X c / ` [ z v ` ] ` ` { * $ z g ,.&.t.t.t.+.4.U  .% # > D.wX8XXX%X<X2XeXu u u u ",
"u u u u iX7X<XdXqX>X%XuXQ.N ) ) S 9 ` x X c / ] ` z c ` ` [ [ O.* $ E X f +.r.r.6.@./ ) ' $ # > S.qXkX4X1X9XdXpXu u u u ",
"u u u u sXsXaXaX>X:X:XaX`.N / ) / 9 [ z X c Q _ { z v { ` [ ) { * $ E $ $ 1 1 1 * $ D { o.% # > A.8XdX4X<X4X3X6Xu u u u ",
"u u u u hXdXhXsXaXqXaXaX`.m D ) S 9 ) z X c Q [ [ k v ` ` ` [ { * * x E v k x x k j ` { o.$ # , f.A.V.c.g.z.g.m.u u u u ",
"u u u u P.I.I.I.R.R.I.C.^ D D D / 8 ) z X c Q ` [ z c [ ( ` [ { * $ 9 O.o.o.O. .o.o.{ S v $ $ , x.D.A.V.F.A.x.m.u u u u ",
"u u u u f.d.f.g.g.j.b.y x ) ! / Q 9 ) 8 + c R ] ] z x ] ] ` / { * $ 9 ] ` ) ) ) ) ' ..z + $ $ : S.fXjX9XzXhXuX+Xu u u u ",
"u u u u ;X:X3XdX1X3XgXyX_.M / V b 9 ( T + T R ) ( z c ] / / ( { ; % 8 ] / / ~ ! ~ }  .z $ $ $ ; F.qXqX:X4X1X;X-Xu u u u ",
"u u u u pXqXsXcXpXsXcXnX[.Y %.3.,.,.2.K d ,.,.2.4.,.,.4.4.2.2.4.A J ,.4.3.3.2.3.4.~ _ b z = $ > D.iXiX+X|.+X;X*Xu u u u ",
"u u u u +X+X@X$X#XXX=XmXu.-.>.:.:.:.:.:.:.7.>.:.:.:.:.>.:.>.7.:.>.>.:.:.>.7.:.:.=.3._ ..X.% # > A.dXdX=X$X9XiX-Xu u u u ",
"u u u u &X+X>XaX:X#X:XmXu.-.w.7.=.-.:.-.:.y.7.:.:.:.:.:.:.q.y.-.:.:.:.-.8.y.:.-.-.:.G ' ..* # > F.0X8X+X4XiXaX-Xu u u u ",
"u u u u &X;X0XsX0X:X%XmXu.=.9.>.:.:.:.:.:.0.>.:.:.:.:.:.:.8.9.:.:.:.:.:.7.9.:.:.-.5.G ' ' $ # > D.7X7X$X-X9XuX4Xu u u u ",
"u u u u 5XaXhXdXkXaX8XbXu.*.*.@.*.@.%.%.+.%.*.&.&.&.5.&.&.&.*.&.+.%.%.&.$.*.&.&.5.( B )  .$ # > F.9XaX7X>XuXhXhXu u u u ",
"u u u u 2X3X<XwX>XwXwX,XQ.M N v 8 z k 0 # E Q / ` k v ) ( / ` { 1 1 z ] ) ` D D _  .l R ' % # , A.:X3X>X;X;X&X*Xu u u u ",
"u u u u x.x.x.B.B.B.z.y T D / Q E 8 R 8 o T R ] ` 9 c ] ( ( ` { ; $ 8 ] ( ] ( ) ) ..k Q ..$ O , g.c.c.c.z.m.l.l.u u u u ",
"u u u u A.A.B.c.T.U.L.| ^ S D _ / 9 [ x X E / ' ` c c ` ` ` ` o.* * x } _ ' v ` _ ' b / _ $ # , g.L.P.J.P.H.m.k.u u u u ",
"u u u u dXdX9X>XcXmXbXnX'.m D D S z ] z X c R / { z c ` ` ` ` { * $ 0 [ ` [ 9 Q ' _ ' .. .% # ; A.MXnXvXnXiX=XM.u u u u ",
"u u u u *X-X-X=X;X:X7XbX'.m V ) ` / / j X c j c { z v { ` ` ` o.* + X [ _ ' 7 / _ ' _ }  .$ # > V.jXxX1X-X=X$XXXu u u u ",
"u u u u oX+X=X8X@XXX%XhX'.N / D D ` ) j X c 9 9 { x v { ` ` ` { * #   [ ' { 9 / ' ' ` '  .$ # ; F.pXiXoXOX=X2X+Xu u u u ",
"u u u u +X+X;XhX>X:X<X2XQ.M D ) / ` / z X c z c { c c / ` ' ` { * + + [ ` ` k / _ / ' ' ..$ # ; F.>X3X-X=X5XiX.Xu u u u ",
"u u u u &X+X-XdXaXsXqX$XW.N D D ) ) ) z X c S ` { c 9 9 { { ' { * $ 9 ` ' ' ' ` ) 7 H  . .$ # > F.$X>X9XuXuXuXM.u u u u ",
"u u u u 5X5X8XsXiXaXaXoXQ.C S / S ` ) 8 X x S { ` z z 9 { ` ` { % $ z [ ' ` ` ` ` 9 _ { ..$ # : K.+X-XuXpXuXuX.Xu u u u "
};
