/* XPM */
static char *_c1e663f5f0a44a0bcac4fe5eedef6823qnOCh5wId2h0ffa[] = {
/* columns rows colors chars-per-pixel */
"60 60 153 2 ",
"   c #030201",
".  c #0B0203",
"X  c #060804",
"o  c #0D0B06",
"O  c #060609",
"+  c #07080B",
"@  c #0A0A0D",
"#  c #130005",
"$  c #100C07",
"%  c #1F0008",
"&  c #130E0A",
"*  c #1A0F0A",
"=  c #191007",
"-  c #151009",
";  c #1A130B",
":  c #0C0D12",
">  c #110F13",
",  c #0F1014",
"<  c #121113",
"1  c #1B1513",
"2  c #1E1814",
"3  c #12131B",
"4  c #1A1718",
"5  c #1F1D19",
"6  c #29000B",
"7  c #2E0F0F",
"8  c #22170B",
"9  c #29130F",
"0  c #221A0F",
"q  c #291C0F",
"w  c #251B12",
"e  c #2B1F12",
"r  c #2D1E19",
"t  c #311F19",
"y  c #29241D",
"u  c #34221B",
"i  c #3B261E",
"p  c #161721",
"a  c #171922",
"s  c #464965",
"d  c #474B68",
"f  c #4A4E6D",
"g  c #4E5272",
"h  c #515576",
"j  c #535779",
"k  c #54587B",
"l  c #C50337",
"z  c #C50438",
"x  c #CB0439",
"c  c #D1043B",
"v  c #DC043E",
"b  c #E0043F",
"n  c #DD0440",
"m  c #E40440",
"M  c #EC0543",
"N  c #F00544",
"B  c #FE0245",
"V  c #FF0549",
"C  c #FF0D4E",
"Z  c #FF104F",
"A  c #FF1252",
"S  c #FF1956",
"D  c #FF1F5B",
"F  c #FF225E",
"G  c #FF2560",
"H  c #FF2B64",
"J  c #FF2E66",
"K  c #FF2A62",
"L  c #C78E54",
"P  c #C58B53",
"I  c #CA8F55",
"U  c #CA8F55",
"Y  c #CC9156",
"T  c #D49659",
"R  c #D49659",
"E  c #D7995B",
"W  c #D89A5B",
"Q  c #DE9E5E",
"!  c #DD9D5D",
"~  c #DEA25F",
"^  c #E1A05E",
"/  c #E2A15F",
"(  c #E3A25F",
")  c #E3A15E",
"_  c #E5A461",
"`  c #E5A763",
"'  c #E5A461",
"]  c #E9A763",
"[  c #E9A662",
"{  c #E7A864",
"}  c #E9AA64",
"|  c #EDAA65",
" . c #EFAA64",
".. c #EDA964",
"X. c #E8A869",
"o. c #F1AC66",
"O. c #F2AC66",
"+. c #F3AC66",
"@. c #F5AF6A",
"#. c #F2B168",
"$. c #F7B169",
"%. c #F3B26D",
"&. c #F9B369",
"*. c #F9B66B",
"=. c #FDB46B",
"-. c #FFB76C",
";. c #FEB56B",
":. c #FFB86D",
">. c #FFBB6E",
",. c #FFB96E",
"<. c #ECAF71",
"1. c #FFBD70",
"2. c #FFBE71",
"3. c #FFBC72",
"4. c #1B5B9D",
"5. c #2F6398",
"6. c #2769AA",
"7. c #2C6BAC",
"8. c #306BA6",
"9. c #396EA5",
"0. c #4273A5",
"q. c #FFD3DF",
"w. c #DBDEE1",
"e. c #FFD6E1",
"r. c #FFD7E2",
"t. c #FFDDE6",
"y. c #EFE9E3",
"u. c #E5E8EB",
"i. c #FFE4EB",
"p. c #FFE7ED",
"a. c #FFE7EE",
"s. c #FFE2EA",
"d. c #FFE8EF",
"f. c #F2F0EA",
"g. c #F8F2EE",
"h. c #FFF9EC",
"j. c #FFEBF1",
"k. c #FFEEF2",
"l. c #FFEFF3",
"z. c #FFEEF3",
"x. c #F2F3F1",
"c. c #FFF0F3",
"v. c #FFF3F6",
"b. c #FFF2F6",
"n. c #FFF1F5",
"m. c #FFFCF3",
"M. c #FFF6F9",
"N. c #FFF6F8",
"B. c #FFFBFC",
"V. c #FFFDFE",
"C. c #FFFEFE",
"Z. c white",
"A. c white",
/* pixels */
"k k k k k k k k k k k k k k k k k k k k k k k k k k k k k k k k k k k k k k j k k 5.k k j j k j k k k k k k k k k k k k ",
"k k k k k k k k p : g j p : g k 3 : g k k k k k k k k k k k k k k k k k k g , 3 j g > 9 j g , p j g : p k k k k k k k k ",
"k k k k k k k j @   f j +   f k X   f k j k k k k k k k k k k k k k j j k g   X h g   . j g   + j g   + j k k k k k k k ",
"k k k k k k a : r t : : r t : : r t > 3 g k k j k k k k k k k k k k j g 3 : r r : > t t : > t r : > t r : a k k k k k k ",
"k k k k k k @   i i .   i i     u i     g j j j j j j j j j j k j j j g     i i     i u     i u   X i u   @ j j k k k k ",
"k k k k k k :   t i .   t i X   u i     : : : : : : : : : : : : : : : :   O i u     i i   . i u   . i u   : k k k k k k ",
"k k k k k k :   u i     u i X   u i .                                       i u     i u   X i u     i u   : k k k k k k ",
"k k k k k j :   t i X   u i       $ z n v v v v v v v v v v v n n n n z .   i u     i u     i u   X i u   : k k k k k k ",
"k k k k k k :   u i     u i X     . M V V V V V V V V V V V V V V V C N .   i u     i u   X i u   X i t   : j k k k k k ",
"k k k k k k :   u i     u i     l v V V V V V V V V V V V V V V V V V M .   i u     i u     i u     i u   : k k k k k k ",
"k k k k k k :   u i X   u i   . m V V V V V V V V V V V V V V V V V V m .   i u     i t     i u   X i t   : k k k k k k ",
"k k k k j j :   u i     u i   . m V V V V V V V V V V V V V V V V V V M .   i u     i u   X i u   . i u   : k k k k k k ",
"k k k k k k :   u i X   u i     m V V V V V V V V V V V V V V V V V V m .   i u   + i u   X i u   . i i   : k k k k k k ",
"k k k k k k :   u i u u i i   . m V V V V V V V V V B V V V V V V V V M     i i u u i i u i i i u u i u   @ k k k k k k ",
"k k k k k k :   t i i i i i     m V V V V V V V V V V V V V V V V V V M # . i i i i i i i i i i i i i t   : j k k k k k ",
"k k k k k k g f > . u i $     . m V V V V V B B B B B B B B B B V V V V m x . X i i i i i i i i i u X > f g k k k k k k ",
"k k k k k k k k >   u i       . m V V V V V C C C C V V C C C C V V V V V M # X u i i i i i i i i r   @ k k k k k k k k ",
"k k k k k k k k g f @         . m V V V V Z q.i.s.e.Z C q.i.d.e.Z B V V V V m x . X   X i u           : j k k k k k k k ",
"k k k k k k k k k j > X X X     m V V V V C s.B.Z.M.D S c.Z.B.d.S b V V V V V M # . . . i t X X X X   : j k k k k k k k ",
"k k k k k k k j 3 @ U } [ ) ;   m V V V V V S K j.Z.i.d.Z.c.J S V V V V V V V V M m m c   ; ^ _ _ U   : k k k k k k k k ",
"k k k k k k k j : X W =.&.O.;   n V V V V V b C d.Z.Z.Z.Z.k.A B V V V V V V V V V V V n X w =.,.1._   : g j k k k k k k ",
"k k k k k k k k g f 4 = - &     m V V V V B B C d.Z.Z.Z.Z.k.Z B V V V V V V V V V m % 9 ^  .;.,.1.^     @ 3 k k k k k k ",
"k k k k k k k k k k :     . . # m V V V V B C F j.Z.v.v.Z.k.F C V V V V V V V V V m . ;  .$.O.O.$.T # .   @ k k k k k k ",
"k k k k k k k k k j @   x m M M V V V V V Z r.c.Z.M.K G c.Z.k.r.Z b V V V V V V V V M x = - - - & 9 m x   : k k k k k k ",
"k k k k k k k k k j :   m V V V V V V V B Z s.N.c.s.Z C t.c.M.i.S B B V V V V V V V V m #   . . . 6 V m   : j j k k k k ",
"k k k k k k k k j j :   m V V V V V V V V B S S S S V B S S S S V V V B V V V V V V V B m M M m M m V v   : k k k k k k ",
"k k k k k k k k j j : . n V V V V V V V V V B B V B V V B B V B V V V V V V V V V V V V V V V V V V V n   : k k k k k k ",
"k k k k k k k k j h :   m V V V V B V V V V V V V V V V V V V V V V V B V V V V V V V V V V V V V V V m   : k k k k k k ",
"k k k k k k k k k j :   c M M M M M M N b N N b N b N M M M M N M M N b N M M M M M M N M N M M N M N x   : j k k k k k ",
"k k k k k k k k k j @   # # # # # # # . # . # # # # . . . # # . # . . # . . # . . # # . . . . # # # # .   : k k k k k k ",
"k k k k k k k k k j : + + + + +     o o $ o o o $ $ o o o o o o o o o $ $ o o o o o o o o & o X     O O + 3 k k k k k k ",
"k k k k k k k k k k g g g g g f + X R #.+.+.+.o.o. . . . . . . . . .+.+.+.+. . . . . . . . .| R   : g g g g k k k k k k ",
"k k k k k k k k k k k k k k k j : X [ ,.o.o.o.o.;.,.;.,.,.,.-.,.,.;.o.o.o.o.;.,.,.;.,.;.,.,.1.' . @ k k k k k k k k k k ",
"k k k k k k k k k k k k k k k h @ X [ @.8 . $ ; [ ,.;.;.;.;.;.;.,...= . $ w +.-.;.;.;.;.;.;.3.'   : j k k k k k k k k k ",
"k k k k k k k k k k k k k k k j : . [ &.y <   X [ -.;.;.;.;.;.;.3. .5 :   $ O.;.;.;.;.;.=.=.} Y   : j k k k k k k k k k ",
"k k k k k k k k k k k k k k k h @ X ) 3.f.u.:   [ ,.-.;.-.;.;.;.=.3.f.w.O o @.,.;.;.,.,.>.[ & o   + j k k k k k k k k k ",
"k k k k k k k k k k k k k k k h @ X ( 1.h.g.y ; ] ,.<.<.<.<.;.;.;.3.m.y.2 q +.,.=.=.[ [ ] Y + + O 3 h k k k k k k k k k ",
"k k k k k k k k k k k k k k k h @ . ..3.3.3.@.O.;.%.0.7.6.9.<.;.,.;.3.3.o.+.,.,.,...& o o > g h h h k k k k k k k k k k ",
"k k k k k k k k k k k k k k k h 3 @ Y [ =.=.;.;.;.%.5.4.7.0.%.;.[ [ =.;.;.;.[ [ } Y & + + 3 h k k k k k k k k k k k k k ",
"k k k k k k k k k k k k k k k k h g & & ..,.3.;.>.@.- @ X.3.1.o.- ; +.,.1. .- . X & f h h h k k k k k k k k k k k k k k ",
"k k k k k k k k k k k k k k k k k k 3 & U _ ' ' ' E $ X E _ _ R X X E _ _ R @ @ : 3 h k k k k k k k k k k k k k k k k k ",
"k k k k k k k k k k k k k k k k k k h g & . o X . X       X   X       X X @ h j h h k k k k k k k k k k k k k k k k k k ",
"k k k k k k k k k k k k k k k k k k k h 3 + : +     = ; = = = = = ; = = & 1 f g k k k k k k k k k k k k k k k k k k k k ",
"k k k k k k k k k k k k k k k k k k k k j k j g O X ^ $.@.@.+.$.@.@.+.$.;.( X @ j k k k k k k k k k k k k k k k k k k k ",
"k k k k k k k k k k k k k k k k k k k k g g f d w e  .,.-.-.-.-.;.;.,.;.( R q w d g f g k k k k k k k k k k k k k k k k ",
"k k k k k k k k k k k k k k k k k k k k :     $ Q *.;.;.;.;.;.;.;.;.,.[ X $ &.( O     : k k k k k k k k k k k k k k k k ",
"k k k k k k k k k k k k k k k k k k f d 2 ;   o ..,.;.;.;.;.;.;.;.;.,.[ 0 u Q T w ; ; w d f k k k k k k k k k k k k k k ",
"k k k k k k k k k k k k k k k k k h @ @ ) o.& X  .1.,.3.>.>.-.-.1.,.,.,.,.( @ =  .&.*.! . : h k k k k k k k k k k k k k ",
"k k k k k k k k k k k k k k k k k h O .  .&.& X Y ~ ~ ~ ! ! ~ ~ ! ^ ~ ~ ( Y   - @.,.>._ X @ k k k k k k k k k k k k k k ",
"k k k k k k k k k k k k k k k k k h + o o.;.*                 X               ; &.1.1.[ X @ h k k k k k k k k k k k k k ",
"k k k k k k k k k k k k k k k k k h 3 > U E &   % % % % % % % % % % % % % %   - T ! Q P > 3 h k k k k k k k k k k k k k ",
"k k k k k k k k k k k k k k k k k k k h +     # M V V V V V V V V V V V V m .     X   @ h k k k k k k k k k k k k k k k ",
"k k k k k k k k k k k k k k k k k k k j 3 @   . x v v v v b v v v v v v n z .   : : : 3 j k k k k k k k k k k k k k k k ",
"k k k k k k k k k k k k k k k k k k k k k h O                                 + g j j j k k k k k k k k k k k k k k k k ",
"k k k k k k k k k k k k k k k k k k k k f s r w 0 0 0 0         0 0 0 w 0 0   + h k k k k k k k k k k k k k k k k k k k ",
"k k k k k k k k k k k k k k k k k k k g @ o ] >.,.,.>.+.$     & O.,.,.,.>...X + h k k k k k k k k k k k k k k k k k k k ",
"k k k k k k k k k k k k k k k k k k k g + X P ! W W ! Y 4 :   @ Y ! E W ~ P X + h k k k k k k k k k k k k k k k k k k k ",
"k k k k k k k k k k k k k k k k k k k j +               g g                   + h j k k k k k k k k k k k k k k k k k k ",
"k k k k k k k k k k k k k k k k k k k h p : : : : : : 3 j j 3 , : , : : : : : p j k k k k k k k k k k k k k k k k k k k ",
"k k k k k k k k k k k k k k k k k k k k k k k k k k k k k k k k k k k k k k k k j k k k k k k k k k k k k k k k k k k k "
};
